Coordinates
version=1
nRows=10
nColumns=45
inDegrees=yes

Units are S.I. units (second, meters, Newtons, ...)
Angles are in degrees.

endheader
time	pelvis_tilt	pelvis_list	pelvis_rotation	pelvis_tx	pelvis_ty	pelvis_tz	hip_flexion_r	hip_adduction_r	hip_rotation_r	knee_angle_r	knee_adduction_r	knee_angle_r_beta	ankle_angle_r	subtalar_angle_r	mtp_angle_r	hip_flexion_l	hip_adduction_l	hip_rotation_l	knee_angle_l	knee_adduction_l	knee_angle_l_beta	ankle_angle_l	subtalar_angle_l	mtp_angle_l	lumbar_extension	lumbar_bending	lumbar_rotation	thoracic_extension	thoracic_bending	thoracic_rotation	arm_flex_r	arm_add_r	arm_rot_r	elbow_flex_r	pro_sup_r	wrist_flex_r	wrist_dev_r	arm_flex_l	arm_add_l	arm_rot_l	elbow_flex_l	pro_sup_l	wrist_flex_l	wrist_dev_l
      7.52564286	     -3.95941839	     -4.72099925	     -2.90528399	      0.64951273	      0.92383169	      0.48944730	    -11.14409712	      4.06344317	     -3.16250965	     15.56726295	      5.06300000	      0.27169999	     15.57943553	      6.76233416	    -12.83437761	     33.00002030	     -6.61160566	     -7.39983009	      9.85287472	      5.06300000	      0.17196510	     12.10366088	      0.03441457	     -1.18083878	     -5.13923039	      7.44942591	      6.13313054	      0.00000000	      0.00000000	      0.00000000	     18.64123742	    -20.44063435	      0.51737291	     55.43345566	     89.99911678	      0.00000000	      0.00000000	     -8.12136798	     -7.90402955	     12.92394224	     20.91785259	     89.99945425	      0.00000000	      0.00000000
      7.53628571	     -4.07693612	     -4.30249872	     -2.90987485	      0.65054587	      0.92137739	      0.48828544	    -11.47726119	      3.34773465	     -3.68485670	     16.59511485	      5.06300000	      0.28963939	     15.20724355	      7.17339866	    -15.37153821	     33.53239585	     -6.11482224	     -7.00254098	     11.52090911	      5.06300000	      0.20107780	     11.59728018	     -1.03214647	     -1.94811926	     -4.90956369	      6.96474855	      6.11602698	      0.00000000	      0.00000000	      0.00000000	     18.61771298	    -20.45260273	      0.41115500	     55.86016328	     89.99911678	      0.00000000	      0.00000000	     -8.37170783	     -7.98843737	     13.16669927	     20.56738252	     89.99945425	      0.00000000	      0.00000000
      7.54692857	     -4.17076558	     -3.75128292	     -2.90049024	      0.65227146	      0.91903281	      0.48698670	    -11.77703862	      2.47411373	     -4.27100772	     17.76205378	      5.06300000	      0.31000632	     14.58752204	      7.40617644	    -18.31998372	     33.96634433	     -5.46096740	     -6.61748250	     13.42775331	      5.06300000	      0.23435851	     10.67175224	     -2.41032124	     -2.82261876	     -4.59380023	      6.35497349	      6.05508350	      0.00000000	      0.00000000	      0.00000000	     18.41268191	    -20.44078259	      0.22467736	     56.16881741	     89.99911678	      0.00000000	      0.00000000	     -8.64586377	     -8.15820102	     13.44337525	     20.34629938	     89.99945425	      0.00000000	      0.00000000
      7.55757143	     -4.23529321	     -3.13003796	     -3.08295331	      0.65477528	      0.91691085	      0.48637328	    -12.12179489	      1.59214836	     -4.28053544	     18.93554909	      5.06300000	      0.33048768	     14.19238146	      7.16144422	    -19.19874145	     34.34949026	     -4.90901762	     -6.57812664	     15.71924730	      5.06300000	      0.27435262	      9.80031810	     -3.58981442	     -2.97433982	     -4.22672562	      5.57245863	      6.15535186	      0.00000000	      0.00000000	      0.00000000	     18.00483783	    -20.36720330	      0.17836607	     56.28834195	     89.99911678	      0.00000000	      0.00000000	     -9.18902527	     -8.42329425	     13.43947788	     20.57483108	     89.99945425	      0.00000000	      0.00000000
      7.56821429	     -4.20903354	     -2.42996207	     -2.94694920	      0.65715644	      0.91489640	      0.48452006	    -12.25112385	      0.46614995	     -5.34728479	     20.64466658	      5.06300000	      0.36031740	     12.77781454	      7.21761372	    -24.25358687	     34.43813801	     -3.97554146	     -6.16708591	     17.56280320	      5.06300000	      0.30652874	      8.02293208	     -5.31840569	     -4.11994861	     -4.00271958	      4.82966509	      5.99611345	      0.00000000	      0.00000000	      0.00000000	     17.55502607	    -20.23684647	     -0.20711670	     56.52085910	     89.99911678	      0.00000000	      0.00000000	     -9.38438293	     -8.57383763	     13.83858178	     20.39367230	     89.99945425	      0.00000000	      0.00000000
      7.57885714	     -4.12149293	     -1.75485983	     -2.94290341	      0.66003855	      0.91318408	      0.48329425	    -12.36140371	     -0.55079163	     -5.83553049	     22.52464694	      5.06300000	      0.39312925	     11.58544305	      6.68620512	    -26.38547586	     34.46022983	     -3.21356301	     -6.09133229	     19.63679527	      5.06300000	      0.34272673	      6.63850366	     -6.59460625	     -4.40003228	     -3.77697408	      4.03457893	      5.94297892	      0.00000000	      0.00000000	      0.00000000	     16.95998985	    -20.09748988	     -0.48591789	     56.62799611	     89.99911678	      0.00000000	      0.00000000	     -9.70728887	     -8.84667771	     14.06714396	     20.53787505	     89.99945425	      0.00000000	      0.00000000
      7.58950000	     -3.98672610	     -1.09169999	     -2.91209513	      0.66311381	      0.91183123	      0.48204084	    -12.35544216	     -1.54950537	     -6.26217288	     24.68216136	      5.06300000	      0.43078498	     10.19126487	      5.89508270	    -27.76050085	     34.34342954	     -2.45434092	     -6.07921178	     21.60800913	      5.06300000	      0.37713090	      5.35714308	     -7.70363484	     -4.31180305	     -3.59488247	      3.24446064	      5.87872656	      0.00000000	      0.00000000	      0.00000000	     16.25642899	    -19.93473822	     -0.75081561	     56.64875782	     89.99911678	      0.00000000	      0.00000000	    -10.05152961	     -9.11318479	     14.23759661	     20.77353700	     89.99945425	      0.00000000	      0.00000000
      7.60014286	     -3.75808772	     -0.51830046	     -2.81342331	      0.66673341	      0.91086685	      0.48075676	    -12.36855542	     -2.42603585	     -6.62670700	     26.98231618	      5.06300000	      0.47093026	      8.42378331	      4.75629681	    -28.27605211	     34.09995585	     -1.76364956	     -6.06853029	     23.64326901	      5.06300000	      0.41265289	      4.54570386	     -8.54862372	     -4.04909423	     -3.46729509	      2.55342999	      5.74845797	      0.00000000	      0.00000000	      0.00000000	     15.38966661	    -19.80760581	     -0.85877540	     56.51420428	     89.99911678	      0.00000000	      0.00000000	    -10.43675099	     -9.33970658	     14.26002594	     21.01904909	     89.99945425	      0.00000000	      0.00000000
      7.61078571	     -3.47700564	      0.12543058	     -2.60693822	      0.66964457	      0.91023577	      0.47900362	    -12.00311751	     -3.41559906	     -7.05641908	     29.94218214	      5.06300000	      0.52258966	      6.16209128	      3.09332885	    -28.72116395	     33.69725790	     -0.88935034	     -5.94271217	     25.37646785	      5.06300000	      0.44290292	      3.86882449	     -9.45106103	     -3.54660746	     -3.50591633	      1.80196813	      5.53416473	      0.00000000	      0.00000000	      0.00000000	     14.71581514	    -19.65540545	     -1.08063877	     56.40985535	     89.99911678	      0.00000000	      0.00000000	    -10.54800776	     -9.62698777	     14.30148770	     21.34038761	     89.99945425	      0.00000000	      0.00000000
      7.62142857	     -3.12146886	      0.65844097	     -2.39246933	      0.67289531	      0.91015296	      0.47704007	    -11.57651287	     -4.32611442	     -7.44855148	     33.05018751	      5.06300000	      0.57683459	      3.29859771	      1.15014466	    -28.79323113	     33.08012160	     -0.08679323	     -5.73659877	     26.96517703	      5.06300000	      0.47063112	      3.73933149	    -10.15080641	     -3.10750646	     -3.57956144	      1.20883806	      5.21329744	      0.00000000	      0.00000000	      0.00000000	     13.71374535	    -19.52337718	     -1.22989117	     56.14515508	     89.99911678	      0.00000000	      0.00000000	    -10.81718791	     -9.72454815	     14.31436073	     21.63655832	     89.99945425	      0.00000000	      0.00000000
